# xmcd
#
# Track frame offsets:
#	150
#	18631
#	32942
#	51033
#	66259
#	83737
#	100374
#	113410
#	131771
#	147395
#
# Disc length: 2199 seconds
#
# Revision: 1
# Processed by: cddbd v1.5.1PL2 Copyright (c) Steve Scherf et al.
# Submitted via: audiograbber 1.83.01
#
DISCID=8a08950a
DTITLE=Juice Newton - Quiet Lies
DYEAR=1982
DGENRE=Country Rock
TTITLE0=Heart Of The Night
TTITLE1=Love's Been A Little Bit Hard On Me
TTITLE2=Break It To Me Gently
TTITLE3=Love Sail Away
TTITLE4=I'm Dancing As Fast As I Can
TTITLE5=I'm Gonna Be Strong
TTITLE6=Trail Of Tears
TTITLE7=Adios Mi Corazon
TTITLE8=Falling In Love
TTITLE9=Ever True
EXTD=
EXTT0=
EXTT1=
EXTT2=
EXTT3=
EXTT4=
EXTT5=
EXTT6=
EXTT7=
EXTT8=
EXTT9=
PLAYORDER=
